<svg width="34" height="34" viewBox="0 0 34 34" fill="none" xmlns="http://www.w3.org/2000/svg">
<circle cx="17" cy="17" r="17" fill="#7D6AF0"/>
<g clip-path="url(#clip0_1_682)">
<path d="M13.5057 12.3045C13.3518 12.4621 13.3518 12.7061 13.5057 12.8788L13.6145 13.0026H17.0001H20.3857L20.4945 12.8788C20.6484 12.7061 20.6484 12.4621 20.4945 12.3045L20.3857 12.1957H17.0001H13.6145L13.5057 12.3045Z" fill="#5F47F3"/>
<path d="M16.5947 7.48932C16.3545 7.60942 15.8515 8.07485 15.5362 8.48021C15.4049 8.64536 15.2847 8.78048 15.2735 8.78048C15.2585 8.78048 15.1909 8.74295 15.1196 8.69416C14.5228 8.29254 13.7121 7.89093 13.1979 7.74079C12.9314 7.66573 12.8075 7.65071 12.5373 7.66197C12.237 7.67323 12.1844 7.68449 12.0381 7.78583C11.8279 7.93222 11.6327 8.30005 11.6327 8.55153C11.6327 8.75796 11.7153 9.08826 11.8241 9.33599C12.0643 9.87272 12.7737 10.7473 13.6933 11.6406L14.2601 12.1961H16.9963H19.7325L20.3256 11.6218C22.1685 9.8427 22.7427 8.65287 22.1197 7.92471C21.932 7.70326 21.7368 7.63945 21.3089 7.66197C20.9486 7.68074 20.6033 7.77833 20.1341 7.98852C19.8714 8.10863 19.1132 8.53276 18.8767 8.69791L18.7154 8.80676L18.5127 8.54027C18.2199 8.14991 17.7732 7.71077 17.5105 7.55312C17.3191 7.43301 17.244 7.41049 17.0376 7.40299C16.8349 7.39173 16.7598 7.40674 16.5947 7.48932Z" fill="white"/>
<path d="M14.2938 13.1603C14.2225 13.2391 14.0123 13.4718 13.8284 13.682C12.5597 15.1008 11.4412 16.497 10.7806 17.4879C10.0224 18.6215 9.62083 19.4097 9.44818 20.0928C9.38437 20.3443 9.37311 20.4681 9.39188 20.8285C9.45193 22.1009 9.98491 23.2682 10.9721 24.2741C12.0831 25.4189 13.6069 26.1733 15.4461 26.4998C16.0204 26.6012 17.3678 26.6387 17.9872 26.5712C18.9818 26.4661 19.9202 26.2146 20.7647 25.8355C21.0687 25.6966 21.1325 25.6628 21.5416 25.4339C22.4875 24.9047 23.3583 24.0564 23.9138 23.1293C24.5594 22.0521 24.7808 20.7496 24.473 19.8263C24.0001 18.4 22.3636 16.0879 19.9164 13.3892L19.5823 13.0214H17.0038H14.4214L14.2938 13.1603ZM17.2477 17.0676C17.3753 17.1689 17.4129 17.2778 17.4129 17.5367V17.7807L17.6118 17.8257C18.2424 17.9759 18.8091 18.5126 18.9705 19.1169C19.0268 19.3271 19.0306 19.3797 18.9893 19.481C18.8955 19.7024 18.614 19.8 18.3963 19.6874C18.2799 19.6274 18.2236 19.5335 18.1636 19.2971C18.141 19.2107 18.0735 19.0794 18.0097 19.0118C17.9008 18.888 17.563 18.689 17.4617 18.689C17.4241 18.689 17.4129 18.8542 17.4129 19.4735V20.2617L17.6306 20.3218C18.5915 20.5995 19.1394 21.2564 18.9893 21.9657C18.9217 22.2923 18.7378 22.6226 18.4826 22.8778C18.2349 23.1293 17.9947 23.2682 17.6418 23.3658L17.4129 23.4296V23.6698C17.4129 24.0489 17.2928 24.2065 17 24.2065C16.7072 24.2065 16.5871 24.0489 16.5871 23.6698V23.4296L16.3582 23.3658C15.7051 23.1856 15.1909 22.6901 15.0295 22.0896C14.9732 21.8794 14.9694 21.8269 15.0107 21.7255C15.1045 21.5041 15.3861 21.4065 15.6037 21.5191C15.7201 21.5791 15.7764 21.673 15.8365 21.9094C15.859 21.9958 15.9265 22.1271 15.9903 22.1947C16.0992 22.3186 16.437 22.5175 16.5383 22.5175C16.5759 22.5175 16.5871 22.3523 16.5871 21.733V20.9448L16.3732 20.8848C15.7727 20.7121 15.3185 20.3856 15.1271 19.9915C14.9769 19.6799 14.9507 19.4697 15.0257 19.177C15.1121 18.8429 15.2584 18.5914 15.5174 18.3287C15.7651 18.0772 16.0054 17.9383 16.3582 17.8408L16.5871 17.777V17.5367C16.5871 17.1576 16.7072 17 17 17C17.1051 17 17.1989 17.0263 17.2477 17.0676Z" fill="white"/>
<path d="M16.3431 18.7606C15.8927 18.9633 15.7088 19.3537 15.9077 19.6765C15.9828 19.7966 16.2868 19.9917 16.5045 20.0593L16.5871 20.0818V19.3874C16.5871 18.8545 16.5758 18.6893 16.542 18.6893C16.5157 18.6893 16.4257 18.7231 16.3431 18.7606Z" fill="white"/>
<path d="M17.4128 21.8194C17.4128 22.3523 17.4241 22.5175 17.4616 22.5175C17.5442 22.5137 17.8032 22.3824 17.9308 22.2735C18.1748 22.0671 18.2386 21.7706 18.0922 21.5303C18.0171 21.4102 17.7131 21.2151 17.4992 21.1475L17.4128 21.125V21.8194Z" fill="white"/>
<path d="M16.8311 17.0601C16.6735 17.1426 16.6472 17.2027 16.6247 17.5217L16.6059 17.7995L16.3807 17.8633C16.0917 17.9421 15.8214 18.0847 15.615 18.2611C15.2472 18.5802 14.9769 19.1807 15.0257 19.5786C15.0933 20.1529 15.4874 20.5432 16.2681 20.8134L16.6059 20.9298L16.6172 21.7443C16.6284 22.6526 16.6434 22.6076 16.3507 22.4837C16.0354 22.3486 15.8365 22.1196 15.7839 21.8344C15.7501 21.6542 15.5775 21.5041 15.4011 21.5041C14.8493 21.5041 14.9169 22.2472 15.5287 22.8515C15.7952 23.118 16.0129 23.2457 16.3807 23.347L16.6059 23.407L16.6284 23.6848C16.6547 24.0264 16.6735 24.0714 16.8311 24.1465C16.985 24.2215 17.015 24.2215 17.1689 24.1465C17.3266 24.0714 17.3453 24.0264 17.3716 23.6848L17.3941 23.407L17.6193 23.3432C18.1335 23.2006 18.5764 22.8515 18.7941 22.4199C19.252 21.5041 18.8542 20.7609 17.6944 20.3781L17.3941 20.2767L17.3829 19.4622C17.3716 18.5539 17.3566 18.5989 17.6493 18.7228C17.9646 18.8579 18.1636 19.0869 18.2161 19.3721C18.2611 19.6274 18.5764 19.785 18.8054 19.6649C19.1094 19.4998 18.9818 18.8992 18.5427 18.4188C18.2912 18.141 18.0322 17.9796 17.6794 17.8783L17.3941 17.7957L17.3716 17.5217C17.3453 17.1802 17.3266 17.1351 17.1689 17.0601C17.015 16.985 16.9737 16.985 16.8311 17.0601ZM16.6247 19.3872V20.1191L16.5421 20.0965C16.2944 20.0252 15.9791 19.8376 15.8928 19.7099C15.6638 19.3759 15.8402 18.9743 16.3131 18.7416C16.6397 18.5802 16.6247 18.5502 16.6247 19.3872ZM17.7807 21.2451C18.0697 21.384 18.2011 21.5566 18.2011 21.7968C18.2011 21.9958 18.1335 22.1346 17.9534 22.2923C17.8145 22.4124 17.5292 22.555 17.4279 22.555C17.3829 22.555 17.3753 22.4312 17.3753 21.8194V21.0874L17.4617 21.11C17.5067 21.125 17.6493 21.185 17.7807 21.2451Z" fill="#7D6AF0"/>
</g>
<defs>
<clipPath id="clip0_1_682">
<rect width="19.2174" height="19.2174" fill="white" transform="translate(7.39136 7.3913)"/>
</clipPath>
</defs>
</svg>
