<svg width="34" height="34" viewBox="0 0 34 34" fill="none" xmlns="http://www.w3.org/2000/svg">
<circle cx="17" cy="17" r="17" fill="#F9A21F"/>
<path d="M16.3717 6.94376C16.1875 7.02749 15.9615 7.18658 15.861 7.29543C15.7689 7.40427 15.1493 8.5095 14.4878 9.75708C13.8347 10.9963 13.2905 12.0261 13.2737 12.0429C13.2654 12.0513 12.0764 12.269 10.6446 12.5202C9.20447 12.7797 7.92341 13.0393 7.78944 13.1063C7.18659 13.4161 6.87679 14.1278 7.05262 14.7976C7.15309 15.2162 7.15309 15.2079 10.2762 18.4231L10.9712 19.1432L10.5944 21.856C10.226 24.4767 10.2176 24.5856 10.3432 24.9289C10.6111 25.6238 11.3898 26.0592 12.0429 25.875C12.2187 25.8332 13.4077 25.2805 14.6888 24.6609L16.9997 23.5222L19.319 24.6526C20.5917 25.2805 21.7723 25.8332 21.9481 25.875C22.4086 26.0006 22.9026 25.8499 23.2878 25.4648C23.8237 24.9289 23.832 24.8368 23.3966 21.8225L23.0199 19.1432L23.7148 18.4315C26.8296 15.233 26.8463 15.2162 26.9468 14.806C27.0054 14.5883 27.0305 14.3622 27.0138 14.3036C26.997 14.245 26.9552 14.0943 26.93 13.9687C26.863 13.684 26.5114 13.2653 26.2016 13.1063C26.0676 13.0309 24.7866 12.7713 23.3464 12.5202C21.9063 12.2606 20.7257 12.0429 20.7173 12.0345C20.7089 12.0261 20.1479 10.9795 19.4781 9.70684C18.7999 8.44252 18.1468 7.3038 18.0212 7.18658C17.5774 6.7763 16.9411 6.6842 16.3717 6.94376Z" fill="#ECECEC"/>
</svg>
