<svg width="45" height="45" viewBox="0 0 45 45" fill="none" xmlns="http://www.w3.org/2000/svg">
<g clip-path="url(#clip0_7_5823)">
<path d="M35.1296 5.42154C34.991 5.50817 33.9688 6.04529 32.8685 6.62572C31.7683 7.19748 30.7547 7.74326 30.6161 7.82123L30.3562 7.9685L30.6335 8.38433C30.7894 8.61824 30.9367 8.92145 30.9713 9.06872C31.006 9.20733 31.0493 9.32861 31.0666 9.32861C31.1099 9.32861 36.2298 6.64304 36.2905 6.59107C36.3165 6.57374 36.2472 6.46978 36.1519 6.35716C35.9353 6.13192 35.6061 5.5255 35.6061 5.36956C35.6061 5.22229 35.4415 5.23962 35.1296 5.42154Z" fill="#2E2E4F"/>
<path d="M23.0878 11.763C22.1869 12.2395 21.0693 12.8286 20.6188 13.0712C19.6226 13.5909 19.5966 13.6169 19.7785 13.8162C19.8565 13.8942 20.0211 14.1887 20.1424 14.4659L20.3763 14.9597L21.8144 14.206C23.6683 13.2444 25.5048 12.2655 25.5482 12.2222C25.5655 12.2048 25.5222 12.1182 25.4442 12.0316C25.3662 11.9449 25.2016 11.6591 25.0804 11.3818C24.9504 11.1133 24.8205 10.888 24.7945 10.888C24.7598 10.888 23.9975 11.2779 23.0878 11.763Z" fill="#2E2E4F"/>
<path d="M13.7751 16.7005C13.4112 16.9084 11.8172 17.7488 10.2665 18.5544C9.65144 18.875 9.11433 19.1695 9.07967 19.1955C9.04502 19.2215 9.15764 19.4641 9.32224 19.7239C9.48684 19.9838 9.61679 20.2351 9.61679 20.287C9.61679 20.3304 9.65144 20.4257 9.69476 20.495C9.77272 20.6162 9.83337 20.5903 11.9125 19.4641C12.1551 19.3341 12.9174 18.9269 13.6192 18.5631L14.884 17.896L14.5981 17.4715C14.4422 17.2376 14.2862 16.9258 14.2516 16.7785C14.1823 16.4753 14.1736 16.4753 13.7751 16.7005Z" fill="#2E2E4F"/>
<path d="M38.0144 1.28065C37.9624 1.3153 37.8758 1.32396 37.8411 1.29797C37.7978 1.28065 37.7112 1.30664 37.6419 1.35861C37.5726 1.41926 37.5119 1.44525 37.5119 1.41059C37.5119 1.3846 37.356 1.45391 37.1654 1.57519C36.9748 1.69648 36.7929 1.79177 36.7583 1.79177C36.7323 1.79177 36.5417 1.96503 36.3338 2.18161C36.1345 2.39819 35.9959 2.57145 36.0219 2.57145C36.0479 2.57145 36.0046 2.64076 35.9353 2.71873C35.736 2.94397 35.5194 3.41178 35.5801 3.46375C35.6061 3.49841 35.5887 3.57637 35.5368 3.63702C35.3635 3.83627 35.4674 5.06643 35.6927 5.51692C36.0565 6.26194 36.4204 6.73842 36.7496 6.92034C36.9315 7.0243 37.0788 7.14558 37.0788 7.18024C37.0788 7.22355 37.1221 7.23221 37.1654 7.20622C37.2174 7.18024 37.2521 7.19756 37.2521 7.24088C37.2521 7.29286 37.278 7.32751 37.3214 7.32751C37.356 7.31885 37.3993 7.32751 37.4253 7.33617C37.7978 7.47478 38.7334 7.57874 38.9933 7.50943C39.1493 7.46612 39.2879 7.44013 39.3052 7.45746C39.3312 7.47478 39.6431 7.34483 40.0069 7.16291C41.2111 6.58248 41.7829 5.56889 41.7136 4.17413C41.6789 3.54172 41.5663 3.13456 41.2804 2.7014C41.0898 2.40685 40.5094 1.79177 40.4228 1.79177C40.3881 1.79177 40.2582 1.7138 40.1195 1.60984C39.9896 1.51455 39.8077 1.41926 39.7124 1.40193C39.6258 1.3846 39.5478 1.36728 39.5478 1.35861C39.5478 1.27198 38.1444 1.20268 38.0144 1.28065Z" fill="#29ABE2"/>
<path d="M8.64641 29.3839C8.62908 29.4012 7.59817 29.4272 6.35068 29.4272C4.49677 29.4358 4.06361 29.4618 3.90768 29.5658C3.81238 29.6351 3.72575 29.7564 3.72575 29.8257C3.72575 29.895 3.6911 29.947 3.63912 29.947C3.57848 29.947 3.55249 31.6189 3.55249 34.7983V39.6497H6.58458H9.62534L9.59935 34.7983L9.57336 29.947L9.29614 29.6784C9.14021 29.5398 9.01026 29.4445 9.01026 29.4705C9.01026 29.4965 8.94096 29.4791 8.84566 29.4358C8.75903 29.3839 8.6724 29.3665 8.64641 29.3839Z" fill="#29ABE2"/>
<path d="M16.5472 12.6559C15.8715 12.8465 15.4816 13.0717 14.9792 13.5742C14.3641 14.1979 14.1129 14.8303 14.1042 15.7486C14.1042 16.3291 14.1302 16.4503 14.4334 17.0394C15.0398 18.2263 15.8108 18.7807 17.0237 18.9107C19.2674 19.1446 21.078 16.7016 20.177 14.6484C19.7785 13.7475 19.3627 13.2883 18.557 12.8725C18.0286 12.5953 17.1363 12.5 16.5472 12.6559Z" fill="#FFCA41"/>
<path d="M25.5915 18.347C25.4529 18.3903 25.2363 18.5203 25.115 18.6502L24.9071 18.8755L24.8811 29.2626L24.8638 39.6497H27.9392C30.8067 39.6497 31.0146 39.641 31.0146 39.4937C31.0319 38.792 30.9973 23.6055 30.98 21.5784C30.954 19.0487 30.9453 18.9534 30.7634 18.6936C30.6508 18.5376 30.4429 18.399 30.2523 18.3384C29.8624 18.2344 25.9727 18.2344 25.5915 18.347Z" fill="#FFCA41"/>
<path d="M27.3502 6.99771C26.9517 7.093 26.302 7.37888 26.0594 7.57814C25.6956 7.88135 25.2971 8.3145 25.2971 8.41846C25.2971 8.4791 25.2451 8.5744 25.1758 8.62637C24.9332 8.82563 24.6907 10.4803 24.8812 10.6016C24.9246 10.6189 24.9332 10.6709 24.9072 10.7142C24.8466 10.8095 25.1758 11.5285 25.4963 12.0137C25.7649 12.4208 26.328 12.88 26.5532 12.88C26.6225 12.88 26.6832 12.9146 26.6832 12.9579C26.6832 13.0013 26.7871 13.0619 26.9257 13.0879C27.0557 13.1225 27.2549 13.1659 27.3762 13.1918C28.0433 13.3478 29.4554 13.1225 29.4554 12.8626C29.4554 12.8193 29.49 12.802 29.5333 12.828C29.5767 12.854 29.6286 12.8193 29.6633 12.75C29.6893 12.6807 29.7586 12.6201 29.8192 12.6201C30.0531 12.6114 30.7895 11.6585 30.9628 11.1387C31.0321 10.9308 31.084 10.4543 31.084 10.0818C31.084 9.47536 31.0494 9.33675 30.7808 8.79964C30.2697 7.79471 29.5593 7.1883 28.693 7.03236C28.1559 6.93706 27.6794 6.9284 27.3502 6.99771Z" fill="#7D6AF0"/>
<path d="M14.624 24.2033C14.3641 24.3332 14.1735 24.6191 14.2515 24.7491C14.2775 24.7924 14.2601 24.8444 14.2082 24.879C14.1475 24.9137 14.1215 27.4 14.1215 32.2947V39.6497H17.1969H20.2723V32.2947C20.2723 27.4173 20.2377 24.8617 20.1857 24.6884C20.1337 24.5498 19.9778 24.3506 19.8478 24.2466C19.6139 24.0734 19.5013 24.0647 17.2316 24.0734C15.343 24.0734 14.8059 24.0993 14.624 24.2033Z" fill="#7D6AF0"/>
<path d="M35.892 13.1058C35.762 13.2271 35.658 13.3657 35.6754 13.409C35.684 13.4524 35.658 13.487 35.6061 13.487C35.5454 13.487 35.5194 17.9052 35.5194 26.5683V39.6497H38.5948H41.6703L41.6183 28.7514C41.5923 22.7652 41.5576 16.883 41.549 15.6961C41.5317 13.3917 41.497 13.1578 41.1072 12.9846C40.9859 12.9239 39.981 12.8893 38.5255 12.8806L36.1432 12.8719L35.892 13.1058Z" fill="#55DEA9"/>
<path d="M6.48064 18.2084C6.46332 18.2257 6.29872 18.2517 6.10813 18.2777C5.77893 18.3123 5.49305 18.4249 4.89529 18.7455C4.49679 18.9621 3.76042 19.811 3.87304 19.9323C3.89903 19.9583 3.89037 19.9843 3.83839 19.9843C3.78641 19.9843 3.68245 20.1922 3.60448 20.4435C3.39657 21.1192 3.45721 22.0548 3.76042 22.6959C3.99433 23.1723 4.67005 23.9693 4.85197 23.9693C4.89529 23.9693 4.93861 24.004 4.93861 24.0386C4.93861 24.1599 5.55369 24.4025 5.97818 24.4631C7.19968 24.6191 8.00535 24.3938 8.77637 23.6835C9.00161 23.4755 9.15755 23.2763 9.1229 23.2416C9.09691 23.2157 9.11423 23.1897 9.16621 23.1897C9.22685 23.1897 9.27017 23.129 9.27017 23.0597C9.27017 22.9904 9.30482 22.9298 9.34814 22.9298C9.47808 22.9298 9.73798 22.1154 9.7553 21.6303C9.78129 21.0066 9.59071 20.3308 9.21819 19.7504C9.05359 19.4992 8.92364 19.2653 8.92364 19.2393C8.92364 19.1526 8.4645 18.7715 8.35188 18.7715C8.28257 18.7715 8.23059 18.7455 8.23059 18.7022C8.23059 18.6415 7.81476 18.4336 7.59819 18.3903C7.54621 18.373 7.43359 18.3383 7.36428 18.3123C7.22567 18.2517 6.5153 18.1737 6.48064 18.2084Z" fill="#55DEA9"/>
<path d="M0.728323 39.9441L0.433777 40.2387V41.7634V43.2881L0.685008 43.5653L0.936238 43.8512H22.6027H44.2605L44.5204 43.6L44.789 43.3401V41.7894C44.789 40.1867 44.7543 39.9874 44.4165 39.8055C44.2692 39.7189 39.5911 39.6929 22.62 39.6756L1.01421 39.6582L0.728323 39.9441Z" fill="#2E2E4F"/>
</g>
<defs>
<clipPath id="clip0_7_5823">
<rect width="44.3552" height="44.3552" fill="white" transform="translate(0.433777 0.40564)"/>
</clipPath>
</defs>
</svg>
