<svg width="45" height="45" viewBox="0 0 45 45" fill="none" xmlns="http://www.w3.org/2000/svg">
<g clip-path="url(#clip0_1_952)">
<path d="M35.7252 6.91167C35.5346 7.00697 35.3267 7.34484 34.3478 9.1295C33.6807 10.3597 33.6114 10.7062 34.0012 11.0354C34.3044 11.304 34.8156 11.304 35.0582 11.0354C35.1534 10.9315 35.4393 10.455 35.6992 9.97851C35.9505 9.50202 36.2537 8.95623 36.3577 8.76564C36.9294 7.76068 36.9987 7.35351 36.6435 7.03296C36.453 6.85969 35.9591 6.79039 35.7252 6.91167Z" fill="#C1C1C1"/>
<path d="M40.8366 7.48386C40.7413 7.50119 39.9269 8.24624 39.0432 9.14723C37.5618 10.6287 37.4232 10.7933 37.4232 11.0705C37.4232 11.2351 37.4752 11.4257 37.5358 11.495C37.6918 11.6943 38.1682 11.8675 38.3935 11.8155C38.5061 11.7809 39.3031 11.0445 40.1781 10.1695C41.6942 8.64475 41.7549 8.56678 41.7549 8.23757C41.7549 7.90836 41.521 7.50985 41.3217 7.50985C41.2871 7.50985 41.2004 7.49252 41.1311 7.4752C41.0705 7.45787 40.9405 7.46653 40.8366 7.48386Z" fill="#C1C1C1"/>
<path d="M40.8452 12.6907C37.9516 14.2501 38.0382 14.1895 38.0296 14.7613C38.0296 15.0471 38.0729 15.1598 38.2548 15.2984C38.6707 15.6189 38.9479 15.541 40.5593 14.6486C41.3823 14.1981 42.1187 13.765 42.2053 13.687C42.6818 13.2538 42.2746 12.3528 41.5989 12.3615C41.5209 12.3615 41.183 12.5088 40.8452 12.6907Z" fill="#C1C1C1"/>
<path d="M30.2154 19.5258C30.1894 20.3922 30.1461 20.6261 29.9555 21.0333C29.5137 21.9949 28.7513 22.584 27.7204 22.7486C27.3652 22.8093 24.9568 22.8439 21.2402 22.8439H15.3231L15.3577 29.3588C15.3751 32.9454 15.4011 35.9429 15.4271 36.0122C15.609 36.558 15.9209 37.0518 16.3367 37.4503C16.6053 37.7103 16.8565 37.9008 16.8998 37.8662C16.9431 37.8402 16.9778 37.8662 16.9778 37.9268C16.9778 37.9875 17.0038 38.0135 17.0298 37.9788C17.0644 37.9528 17.1944 37.9788 17.3243 38.0481C17.4543 38.1174 17.7142 38.1867 17.8961 38.2127C18.0867 38.2301 21.786 38.256 26.135 38.256C33.031 38.2647 34.0446 38.282 34.1659 38.3947C34.2352 38.464 34.3132 38.5246 34.3479 38.5246C34.3738 38.5246 34.5471 38.6286 34.7204 38.7585C34.8936 38.8971 34.9976 38.9404 34.963 38.8711C34.9283 38.8018 34.9716 38.8278 35.0583 38.9231C35.1449 39.0271 35.3008 39.1397 35.4135 39.1744C35.5174 39.2004 35.604 39.261 35.604 39.287C35.604 39.3216 35.7513 39.4256 35.9333 39.5209C36.1065 39.6162 36.2711 39.7115 36.2971 39.7375C36.3231 39.7635 36.4531 39.8588 36.5917 39.9454C36.7563 40.0494 36.8169 40.058 36.7736 39.9887C36.7476 39.9194 36.7909 39.9541 36.8862 40.0667C36.9815 40.1706 37.1288 40.2573 37.1981 40.2573C37.2761 40.2573 37.3627 40.3179 37.3887 40.3872C37.4234 40.4565 37.4753 40.5172 37.5273 40.5172C37.5706 40.5172 37.7352 40.6125 37.8912 40.7338C38.0471 40.8551 38.2984 40.9937 38.4456 41.0456C38.6016 41.0976 38.7229 41.1756 38.7229 41.2276C38.7229 41.2709 38.7662 41.2796 38.8095 41.2536C38.8615 41.2276 38.9221 41.2536 38.9481 41.3229C38.9741 41.4008 39.1127 41.5048 39.26 41.5655C39.4073 41.6261 39.6238 41.7647 39.7451 41.8773C39.8664 41.99 40.005 42.0766 40.0657 42.0766C40.1263 42.0766 40.2563 42.1546 40.3689 42.2499C40.4815 42.3452 40.6028 42.4231 40.6375 42.4231C40.6721 42.4231 40.7674 42.4491 40.8454 42.4751C40.9667 42.5271 40.9753 42.3365 40.958 40.4219L40.932 38.308L41.8417 38.2994C42.6387 38.2907 42.8206 38.256 43.2711 38.0481C43.5743 37.9182 43.9295 37.6583 44.1115 37.459C44.5446 36.9739 44.5446 36.9739 44.7439 36.5753C44.9085 36.2375 44.9172 36.0382 44.9345 28.5011C44.9518 22.8959 44.9258 20.7041 44.8565 20.5308C44.8045 20.3922 44.7526 20.2449 44.7352 20.1842C44.6833 19.9157 43.9122 19.032 43.739 19.032C43.7043 19.032 43.6177 18.9714 43.5484 18.9021C43.1672 18.5295 42.9852 18.5209 36.4617 18.5122H30.2501L30.2154 19.5258Z" fill="#55DEA9"/>
<circle cx="24.0495" cy="28.9205" r="1.90099" fill="white"/>
<circle cx="30.3861" cy="28.9205" r="1.90099" fill="white"/>
<circle cx="36.7227" cy="28.9205" r="1.90099" fill="white"/>
<path d="M2.94307 2.5718C2.72649 2.59779 2.49258 2.65844 2.42327 2.70175C2.35396 2.74507 2.26733 2.78839 2.23268 2.78839C1.96411 2.79705 1.08911 3.68071 0.837872 4.20052L0.647278 4.60769V12.7079C0.647278 20.6523 0.647278 20.8169 0.820545 21.1114C0.915842 21.276 1.03713 21.458 1.08045 21.5186C1.5656 22.1077 1.70421 22.2377 1.79084 22.2377C1.85149 22.2377 1.90347 22.2723 1.90347 22.3156C1.90347 22.3589 2.14604 22.4802 2.43193 22.5929C2.85644 22.7488 3.15099 22.7921 3.82674 22.7921L4.68441 22.8008L4.65842 24.9926C4.64109 26.1882 4.65842 27.1758 4.70174 27.1758C4.73639 27.1758 4.76238 27.1325 4.76238 27.0891C4.76238 27.0372 4.82302 27.0025 4.89233 27.0025C4.96164 27.0025 5.02228 26.9592 5.02228 26.9159C5.02228 26.8639 5.04827 26.8379 5.08292 26.8466C5.16089 26.8726 5.37748 26.7339 6.31312 26.1188C6.43441 26.0322 6.63367 25.9196 6.75496 25.8589C7.08416 25.6943 7.66461 25.3218 7.6906 25.2438C7.70793 25.2092 7.77723 25.1832 7.84654 25.1832C7.91585 25.1832 7.96783 25.1572 7.96783 25.1139C7.96783 25.0792 8.15842 24.958 8.401 24.8453C8.63491 24.7327 8.83416 24.6114 8.83416 24.5854C8.83416 24.5508 8.98144 24.4555 9.16337 24.3602C9.33664 24.2649 9.50124 24.1609 9.52724 24.1263C9.57922 24.0656 10.0817 23.7711 10.6275 23.4765C10.7834 23.3986 10.9134 23.2946 10.9134 23.2599C10.9134 23.2166 10.948 23.1993 10.9827 23.2253C11.026 23.2513 11.1386 23.1906 11.2426 23.104C11.3465 23.0087 11.4678 22.9307 11.5198 22.9307C11.5631 22.9307 11.6064 22.9047 11.6064 22.8614C11.6064 22.8268 15.1844 22.7835 19.5594 22.7661C28.1448 22.7315 28.0842 22.7315 28.7946 22.2636C29.4617 21.8305 29.8862 21.224 30.0508 20.479C30.1547 20.0372 30.1894 4.99755 30.0941 4.59903C30.0594 4.46042 29.9208 4.18319 29.7822 3.98393C29.6523 3.78468 29.5396 3.58542 29.5396 3.5421C29.5396 3.49012 29.401 3.36883 29.2364 3.26487C29.0718 3.16091 28.9332 3.04829 28.9332 3.0223C28.9332 2.95299 28.6213 2.81438 28.1448 2.6671C27.8329 2.56314 3.75743 2.47651 2.94307 2.5718Z" fill="#7D6AF0"/>
<rect x="4.40598" y="8.0098" width="13.9406" height="1.26733" rx="0.633664" fill="white"/>
<rect x="13.2773" y="11.8118" width="13.9406" height="1.26733" rx="0.633664" fill="white"/>
<rect x="17.0793" y="15.6138" width="10.1386" height="1.26733" rx="0.633664" fill="white"/>
<rect x="4.40598" y="15.6138" width="10.1386" height="1.26733" rx="0.633664" fill="white"/>
<rect x="19.6139" y="8.0098" width="7.60397" height="1.26733" rx="0.633664" fill="white"/>
<rect x="4.40598" y="11.8118" width="7.60397" height="1.26733" rx="0.633664" fill="white"/>
</g>
<defs>
<clipPath id="clip0_1_952">
<rect width="44.3565" height="44.3565" fill="white" transform="translate(0.603973 0.405945)"/>
</clipPath>
</defs>
</svg>
